<svg width="155" height="20" viewBox="0 0 155 20" fill="none" xmlns="http://www.w3.org/2000/svg">
<path fill-rule="evenodd" clip-rule="evenodd" d="M141.358 11.3857C143.056 12.2062 144.809 12.6146 146.29 12.5341C146.3 12.5341 146.308 12.5326 146.317 12.5326L146.423 1.6225C146.427 1.23729 146.011 1.00514 145.703 1.2206L136.846 7.41091C137.562 8.827 139.22 10.3519 141.358 11.3857H141.358Z" fill="#00C6FB"/>
<path fill-rule="evenodd" clip-rule="evenodd" d="M145.922 13.5804C144.376 13.5804 142.625 13.1408 140.937 12.3254C138.607 11.201 136.855 9.59479 136.013 7.99298L131.511 11.1415C131.159 11.3874 131.287 11.954 131.706 12.0127L139.269 13.0792C139.714 13.1423 140.121 13.3701 140.417 13.7197L145.441 19.6721C145.721 20.0029 146.247 19.802 146.251 19.3609L146.308 13.5696C146.181 13.5775 146.052 13.5804 145.922 13.5804Z" fill="#00C6FB"/>
<path fill-rule="evenodd" clip-rule="evenodd" d="M145.923 12.7543C144.377 12.7543 142.626 12.3146 140.937 11.4992C136.964 9.5804 134.668 6.26652 135.708 3.95304C136.749 1.64101 140.676 1.33341 144.649 3.25369C145.948 3.88194 147.126 4.6959 148.055 5.60852C148.255 5.80512 148.264 6.13448 148.074 6.34196C147.883 6.54944 147.567 6.55815 147.367 6.36227C146.516 5.5251 145.43 4.77642 144.226 4.19461C140.877 2.57612 137.392 2.66752 136.615 4.39266C135.838 6.11779 138.012 8.94127 141.36 10.5605C143.058 11.3803 144.809 11.7887 146.292 11.7082C147.661 11.6342 148.611 11.1561 148.969 10.3617C149.341 9.53397 148.982 8.59015 148.614 7.94159C148.473 7.69421 148.553 7.37718 148.792 7.23137C149.031 7.08628 149.337 7.16826 149.478 7.41564C150.17 8.63295 150.312 9.83503 149.877 10.7992C149.356 11.9563 148.102 12.6462 146.345 12.7427C146.205 12.7506 146.065 12.7535 145.923 12.7535V12.7543Z" fill="#00C6FB"/>
<path d="M11.1394 1.76285C9.75708 0.523049 8.13509 0 6.11478 0C3.26983 0 0.45143 1.29494 0.45143 4.38031C0.45143 7.57594 3.50882 8.62277 5.95545 8.73304C7.73677 8.78818 8.18892 9.31123 8.18892 9.94528C8.21547 10.6613 7.33773 11.1299 6.22099 11.1024C4.83871 11.0748 3.26982 10.7716 1.64783 9.39466L0 12.2043C2.23347 14.1326 4.22723 14.5186 6.16789 14.5186C10.342 14.5186 11.9374 12.1492 11.9109 9.94528C11.8843 6.1983 8.77384 5.64767 6.19444 5.56497C4.91838 5.5374 4.25379 5.12462 4.25379 4.38031C4.25379 3.71941 4.89182 3.25076 6.14133 3.25076C7.33773 3.25076 8.26858 3.52644 9.25255 4.24247L11.1401 1.76358L11.1394 1.76285Z" fill="white"/>
<path d="M20.5248 10.7157C18.5576 10.7157 17.3081 9.25534 17.3081 7.21753C17.3081 5.2617 18.4779 3.71938 20.5248 3.71938C22.253 3.71938 24.0609 4.62838 24.0609 7.21753C24.0609 9.50417 22.2796 10.7157 20.5248 10.7157ZM27.9695 19.9993V0.413475H24.5396L24.3006 2.14877C23.0776 0.523022 21.5884 0.165375 19.9399 0.165375C16.0851 0.165375 13.4526 2.97506 13.4526 7.21753C13.4526 11.6254 16.1375 14.2973 19.993 14.2973C21.3753 14.2973 22.9973 13.8018 24.114 12.369V20.0001H27.9695V19.9993Z" fill="white"/>
<path d="M31.0264 0.385284V7.60285C31.0264 12.8921 33.552 14.2698 36.5032 14.2698C38.0986 14.2974 39.5878 13.8287 40.757 12.2037L40.8897 13.9941H44.3462V0.385284H40.5711V7.40988C40.5711 9.17274 39.3747 10.7709 37.5933 10.7434C35.7589 10.7434 34.8812 9.66895 34.8812 7.57528V0.385284H31.0257H31.0264Z" fill="white"/>
<path d="M57.6136 1.95588C56.9225 0.743641 55.3802 0.0827544 53.7316 0.0827544C49.8496 0.0276197 46.846 2.67263 46.846 7.19005C46.846 11.6799 49.6903 14.3249 53.6254 14.2973C54.9014 14.2698 56.789 13.7184 57.6667 12.2864L57.8792 13.9941H61.3356C61.3356 9.47596 61.3356 4.90341 61.3356 0.385264H57.7464L57.6136 1.95588ZM54.1306 3.58163C56.4172 3.58163 57.6136 5.37206 57.6136 7.32789C57.6136 9.03561 56.2845 10.7709 54.1306 10.7709C52.2165 10.7709 50.6742 9.44912 50.6742 7.19005C50.6742 4.93098 52.2165 3.58163 54.1306 3.58163Z" fill="white"/>
<path d="M64.5786 0.412798V13.9933H68.4068V6.91361C68.4068 4.87508 69.8156 3.77312 71.4642 3.77312C72.2615 3.77312 72.9261 3.99365 73.5642 4.46157L75.1596 1.32107C74.2287 0.467209 73.1924 0.0812683 71.9422 0.0812683C70.4802 0.0812683 69.3104 0.631885 68.4326 1.89926L68.1405 0.412072H64.5779L64.5786 0.412798Z" fill="white"/>
<path d="M89.0936 8.48447C89.9175 2.92022 86.9936 0.0270996 82.5267 0.0270996C78.2464 0.0270996 75.5607 2.91949 75.5607 7.05169C75.5607 11.4044 78.166 14.2968 82.925 14.2968C84.8922 14.2968 87.1523 13.7179 88.5611 12.2859L86.408 9.80625C85.4779 10.6325 84.0418 10.8807 83.0047 10.8807C80.8516 10.8807 79.6279 9.80625 79.442 8.48374H89.0929L89.0936 8.48447ZM79.4428 5.59207C79.8152 4.242 80.9844 3.4157 82.5267 3.4157C84.1221 3.4157 85.5841 4.10416 85.6638 5.59207H79.4428Z" fill="white"/>
<path d="M103.876 13.994V6.69377C103.876 5.15145 104.78 3.80137 106.295 3.80137C107.837 3.80137 108.289 4.93091 108.289 6.63863V13.994H112.144V6.55593C112.144 1.48716 109.645 0.0551147 106.906 0.0551147C104.965 0.0551147 103.716 0.771135 102.546 2.6167C101.696 0.633299 100.153 0.0819563 98.7171 0.0819563C97.6004 0.0819563 96.0853 0.440327 95.2614 1.92751L94.9952 0.385192H91.6457V13.994H95.4739V6.72133C95.4739 5.17901 96.3243 3.71867 97.8401 3.71867C99.4083 3.71867 100.1 4.90334 100.1 6.69377V13.994H103.875H103.876Z" fill="white"/>
<path d="M127.99 8.48447C128.814 2.92022 125.89 0.0270996 121.423 0.0270996C117.142 0.0270996 114.457 2.91949 114.457 7.05169C114.457 11.4044 117.062 14.2968 121.821 14.2968C123.788 14.2968 126.049 13.7179 127.458 12.2859L125.305 9.80625C124.374 10.6325 122.939 10.8807 121.902 10.8807C119.748 10.8807 118.526 9.80625 118.339 8.48374H127.99V8.48447ZM118.339 5.59207C118.711 4.242 119.881 3.4157 121.423 3.4157C123.018 3.4157 124.48 4.10416 124.56 5.59207H118.338H118.339Z" fill="white"/>
<path d="M150.914 0V0.54264H150.012V3.05272H149.375V0.54264H148.469V0H150.914Z" fill="white"/>
<path d="M153.283 0H154.194V3.05272H153.602V0.988071C153.602 0.928584 153.602 0.8437 153.606 0.737783C153.606 0.631867 153.606 0.551349 153.606 0.491861L153.036 3.05272H152.424L151.857 0.491861C151.857 0.551349 151.857 0.631867 151.857 0.737783C151.862 0.8437 151.862 0.928584 151.862 0.988071V3.05272H151.274V0H152.188L152.738 2.39981L153.283 0Z" fill="white"/>
</svg>
